<svg width="217" height="205" viewBox="0 0 217 205" fill="none" xmlns="http://www.w3.org/2000/svg">
<rect width="217" height="205" rx="55" fill="#78909C"/>
<path d="M167.204 84.52C180.738 92.6867 180.738 112.313 167.204 120.48L96.1 163.388C82.1039 171.834 64.25 161.755 64.25 145.408V59.5923C64.25 43.2454 82.1039 33.1665 96.0999 41.6123L167.204 84.52Z" fill="#D50000"/>
<path d="M129.857 95.9492C121.455 113.357 100.531 120.658 83.1228 112.255C65.7147 103.852 58.4144 82.9282 66.8172 65.5201C75.22 48.112 96.1438 40.8118 113.552 49.2145C130.96 57.6173 138.26 78.5411 129.857 95.9492ZM70.2077 67.1567C62.7087 82.6923 69.2237 101.365 84.7593 108.864C100.295 116.363 118.968 109.848 126.467 94.3126C133.966 78.7771 127.451 60.1039 111.915 52.605C96.3797 45.1061 77.7066 51.6211 70.2077 67.1567Z" fill="#C4C4C4"/>
<path d="M125.355 93.7756C118.152 108.697 100.218 114.954 85.2965 107.752C70.3753 100.549 64.1179 82.6147 71.3203 67.6935C78.5227 52.7723 96.4574 46.5149 111.379 53.7173C126.3 60.9197 132.557 78.8544 125.355 93.7756ZM71.9719 68.008C64.9432 82.5694 71.0497 100.072 85.611 107.1C100.172 114.129 117.675 108.022 124.703 93.4611C131.732 78.8997 125.625 61.3976 111.064 54.3689C96.5027 47.3402 79.0005 53.4467 71.9719 68.008Z" fill="#C4C4C4"/>
<rect x="79.0234" y="106.945" width="12" height="78" transform="rotate(25.7663 79.0234 106.945)" fill="url(#paint0_linear)"/>
<ellipse cx="120.68" cy="70.3947" rx="2.73873" ry="10.5" transform="rotate(-22.1322 120.68 70.3947)" fill="#C4C4C4" fill-opacity="0.29"/>
<line x1="78.2093" y1="108.717" x2="85.1039" y2="122.039" stroke="url(#paint1_linear)" stroke-width="0.125"/>
<line x1="72.0918" y1="123.528" x2="85.0411" y2="122.005" stroke="url(#paint2_linear)" stroke-width="0.125"/>
<line x1="72.1537" y1="123.559" x2="78.1165" y2="134.21" stroke="url(#paint3_linear)" stroke-width="0.125"/>
<line x1="65.5647" y1="137.038" x2="78.048" y2="134.18" stroke="url(#paint4_linear)" stroke-width="0.125"/>
<line x1="65.6331" y1="137.068" x2="71.596" y2="147.719" stroke="url(#paint5_linear)" stroke-width="0.125"/>
<line x1="58.6061" y1="151.448" x2="71.5241" y2="147.69" stroke="url(#paint6_linear)" stroke-width="0.125"/>
<line x1="58.6799" y1="151.481" x2="64.2081" y2="163.032" stroke="url(#paint7_linear)" stroke-width="0.125"/>
<line x1="52.093" y1="164.955" x2="64.1417" y2="162.998" stroke="url(#paint8_linear)" stroke-width="0.125"/>
<line x1="52.1609" y1="164.993" x2="57.2543" y2="177.445" stroke="url(#paint9_linear)" stroke-width="0.125"/>
<line x1="45.1181" y1="177.127" x2="57.198" y2="177.406" stroke="url(#paint10_linear)" stroke-width="0.125"/>
<line x1="47.3368" y1="172.646" x2="55.9702" y2="182.365" stroke="url(#paint11_linear)" stroke-width="0.125"/>
<line x1="47.2754" y1="172.626" x2="61.0941" y2="169.303" stroke="url(#paint12_linear)" stroke-width="0.125"/>
<line x1="55.2005" y1="158.682" x2="61.1634" y2="169.333" stroke="url(#paint13_linear)" stroke-width="0.125"/>
<line x1="55.132" y1="158.651" x2="67.6154" y2="155.794" stroke="url(#paint14_linear)" stroke-width="0.125"/>
<line x1="62.5935" y1="143.379" x2="67.6869" y2="155.831" stroke="url(#paint15_linear)" stroke-width="0.125"/>
<line x1="62.5256" y1="143.341" x2="74.5743" y2="141.384" stroke="url(#paint16_linear)" stroke-width="0.125"/>
<line x1="69.1125" y1="129.867" x2="74.6407" y2="141.419" stroke="url(#paint17_linear)" stroke-width="0.125"/>
<line x1="69.0461" y1="129.832" x2="81.0948" y2="127.875" stroke="url(#paint18_linear)" stroke-width="0.125"/>
<line x1="75.1966" y1="117.256" x2="81.1595" y2="127.907" stroke="url(#paint19_linear)" stroke-width="0.125"/>
<line x1="75.1275" y1="117.225" x2="88.9461" y2="113.902" stroke="url(#paint20_linear)" stroke-width="0.125"/>
<defs>
<linearGradient id="paint0_linear" x1="119.023" y1="145.945" x2="49.0234" y2="142.945" gradientUnits="userSpaceOnUse">
<stop stop-color="#463014"/>
<stop offset="0.407406" stop-color="#604F39"/>
<stop offset="1" stop-color="#C4C4C4"/>
</linearGradient>
<linearGradient id="paint1_linear" x1="81.6011" y1="115.407" x2="80.713" y2="115.867" gradientUnits="userSpaceOnUse">
<stop offset="0.188652" stop-color="#463014"/>
<stop offset="0.501157" stop-color="#CCFF90"/>
<stop offset="0.943874" stop-color="#303030" stop-opacity="0"/>
</linearGradient>
<linearGradient id="paint2_linear" x1="78.5737" y1="122.829" x2="78.6905" y2="123.822" gradientUnits="userSpaceOnUse">
<stop offset="0.188652" stop-color="#463014"/>
<stop offset="0.501157" stop-color="#CCFF90"/>
<stop offset="0.943874" stop-color="#303030" stop-opacity="0"/>
</linearGradient>
<linearGradient id="paint3_linear" x1="75.0805" y1="128.915" x2="74.208" y2="129.404" gradientUnits="userSpaceOnUse">
<stop offset="0.188652" stop-color="#463014"/>
<stop offset="0.501157" stop-color="#CCFF90"/>
<stop offset="0.943874" stop-color="#303030" stop-opacity="0"/>
</linearGradient>
<linearGradient id="paint4_linear" x1="71.8203" y1="135.67" x2="72.0434" y2="136.645" gradientUnits="userSpaceOnUse">
<stop offset="0.188652" stop-color="#463014"/>
<stop offset="0.501157" stop-color="#CCFF90"/>
<stop offset="0.943874" stop-color="#303030" stop-opacity="0"/>
</linearGradient>
<linearGradient id="paint5_linear" x1="68.56" y1="142.424" x2="67.6875" y2="142.913" gradientUnits="userSpaceOnUse">
<stop offset="0.188652" stop-color="#463014"/>
<stop offset="0.501157" stop-color="#CCFF90"/>
<stop offset="0.943874" stop-color="#303030" stop-opacity="0"/>
</linearGradient>
<linearGradient id="paint6_linear" x1="65.0826" y1="149.629" x2="65.3619" y2="150.589" gradientUnits="userSpaceOnUse">
<stop offset="0.188652" stop-color="#463014"/>
<stop offset="0.501157" stop-color="#CCFF90"/>
<stop offset="0.943874" stop-color="#303030" stop-opacity="0"/>
</linearGradient>
<linearGradient id="paint7_linear" x1="61.3876" y1="157.284" x2="60.4856" y2="157.715" gradientUnits="userSpaceOnUse">
<stop offset="0.188652" stop-color="#463014"/>
<stop offset="0.501157" stop-color="#CCFF90"/>
<stop offset="0.943874" stop-color="#303030" stop-opacity="0"/>
</linearGradient>
<linearGradient id="paint8_linear" x1="58.1274" y1="164.038" x2="58.2877" y2="165.025" gradientUnits="userSpaceOnUse">
<stop offset="0.188652" stop-color="#463014"/>
<stop offset="0.501157" stop-color="#CCFF90"/>
<stop offset="0.943874" stop-color="#303030" stop-opacity="0"/>
</linearGradient>
<linearGradient id="paint9_linear" x1="54.6497" y1="171.243" x2="53.7242" y2="171.621" gradientUnits="userSpaceOnUse">
<stop offset="0.188652" stop-color="#463014"/>
<stop offset="0.501157" stop-color="#CCFF90"/>
<stop offset="0.943874" stop-color="#303030" stop-opacity="0"/>
</linearGradient>
<linearGradient id="paint10_linear" x1="51.1566" y1="177.329" x2="51.1335" y2="178.329" gradientUnits="userSpaceOnUse">
<stop offset="0.188652" stop-color="#463014"/>
<stop offset="0.501157" stop-color="#CCFF90"/>
<stop offset="0.943874" stop-color="#303030" stop-opacity="0"/>
</linearGradient>
<linearGradient id="paint11_linear" x1="51.6067" y1="177.547" x2="50.8591" y2="178.211" gradientUnits="userSpaceOnUse">
<stop offset="0.188652" stop-color="#463014"/>
<stop offset="0.501157" stop-color="#CCFF90"/>
<stop offset="0.943874" stop-color="#303030" stop-opacity="0"/>
</linearGradient>
<linearGradient id="paint12_linear" x1="54.1994" y1="171.025" x2="54.4332" y2="171.998" gradientUnits="userSpaceOnUse">
<stop offset="0.188652" stop-color="#463014"/>
<stop offset="0.501157" stop-color="#CCFF90"/>
<stop offset="0.943874" stop-color="#303030" stop-opacity="0"/>
</linearGradient>
<linearGradient id="paint13_linear" x1="58.1274" y1="164.038" x2="57.2548" y2="164.526" gradientUnits="userSpaceOnUse">
<stop offset="0.188652" stop-color="#463014"/>
<stop offset="0.501157" stop-color="#CCFF90"/>
<stop offset="0.943874" stop-color="#303030" stop-opacity="0"/>
</linearGradient>
<linearGradient id="paint14_linear" x1="61.3877" y1="157.284" x2="61.6108" y2="158.258" gradientUnits="userSpaceOnUse">
<stop offset="0.188652" stop-color="#463014"/>
<stop offset="0.501157" stop-color="#CCFF90"/>
<stop offset="0.943874" stop-color="#303030" stop-opacity="0"/>
</linearGradient>
<linearGradient id="paint15_linear" x1="65.0824" y1="149.629" x2="64.1568" y2="150.008" gradientUnits="userSpaceOnUse">
<stop offset="0.188652" stop-color="#463014"/>
<stop offset="0.501157" stop-color="#CCFF90"/>
<stop offset="0.943874" stop-color="#303030" stop-opacity="0"/>
</linearGradient>
<linearGradient id="paint16_linear" x1="68.56" y1="142.424" x2="68.7203" y2="143.411" gradientUnits="userSpaceOnUse">
<stop offset="0.188652" stop-color="#463014"/>
<stop offset="0.501157" stop-color="#CCFF90"/>
<stop offset="0.943874" stop-color="#303030" stop-opacity="0"/>
</linearGradient>
<linearGradient id="paint17_linear" x1="71.8202" y1="135.67" x2="70.9182" y2="136.102" gradientUnits="userSpaceOnUse">
<stop offset="0.188652" stop-color="#463014"/>
<stop offset="0.501157" stop-color="#CCFF90"/>
<stop offset="0.943874" stop-color="#303030" stop-opacity="0"/>
</linearGradient>
<linearGradient id="paint18_linear" x1="75.0805" y1="128.916" x2="75.2408" y2="129.903" gradientUnits="userSpaceOnUse">
<stop offset="0.188652" stop-color="#463014"/>
<stop offset="0.501157" stop-color="#CCFF90"/>
<stop offset="0.943874" stop-color="#303030" stop-opacity="0"/>
</linearGradient>
<linearGradient id="paint19_linear" x1="78.1235" y1="122.612" x2="77.2509" y2="123.1" gradientUnits="userSpaceOnUse">
<stop offset="0.188652" stop-color="#463014"/>
<stop offset="0.501157" stop-color="#CCFF90"/>
<stop offset="0.943874" stop-color="#303030" stop-opacity="0"/>
</linearGradient>
<linearGradient id="paint20_linear" x1="82.0514" y1="115.624" x2="82.2852" y2="116.597" gradientUnits="userSpaceOnUse">
<stop offset="0.188652" stop-color="#463014"/>
<stop offset="0.501157" stop-color="#CCFF90"/>
<stop offset="0.943874" stop-color="#303030" stop-opacity="0"/>
</linearGradient>
</defs>
</svg>
